<?xml version="1.0" encoding="utf-8"?>
<!-- Generator: Adobe Illustrator 23.0.1, SVG Export Plug-In . SVG Version: 6.00 Build 0)  -->
<svg version="1.1" id="dj" xmlns="http://www.w3.org/2000/svg" xmlns:xlink="http://www.w3.org/1999/xlink" x="0px" y="0px"
	 viewBox="0 0 220.7 250.3" style="enable-background:new 0 0 220.7 250.3;" xml:space="preserve">
<style type="text/css">
	.st0{fill:#660D3B;}
	.st1{fill:#C2AB83;}
</style>
<circle id="red" class="st0" cx="110.4" cy="139.9" r="110.4"/>
<g id="beige">
	<circle class="st1" cx="110" cy="137.9" r="32.8"/>
	<path class="st1" d="M122.5,4.7c0,0,1.5-6,3.4-4.5c1.9,1.5,52.2,62.2,52.6,64.2c0.4,1.9,2.4,30.2,3.5,31.3c1.3,1.4,5.5-1.2,6.3,1.8
		c0.8,3,0.4,57.4,0,58.9s-16.9,0.8-18.4,0c0.4-4.1-0.6-57.9,0.5-59.4c1.1-1.5,0.6-0.3,5.2-1.8c0.8-3.8-1.4-28.2-1.4-28.2L122.5,4.7z
		"/>
	<path class="st1" d="M30.4,111.9c0.5-2,13.3,5.5,13.6,6.6c0.4,1.1-14.3,55.6,37.5,78.8c-1.9,5.3-4.4,13.3-4.4,13.3
		S9,193.7,30.4,111.9z"/>
	<path class="st1" d="M88.1,200.4c0,0,8.2,1.6,8.9,2.7c0.7,1.1-1.7,12.4-2,13.1c-0.3,0.7-10.2-2-10.2-2.7S86.7,201.9,88.1,200.4z"/>
</g>
</svg>
