<?xml version="1.0" encoding="utf-8"?>
<!-- Generator: Adobe Illustrator 23.0.1, SVG Export Plug-In . SVG Version: 6.00 Build 0)  -->
<svg version="1.1" id="drums" xmlns="http://www.w3.org/2000/svg" xmlns:xlink="http://www.w3.org/1999/xlink" x="0px" y="0px"
	 viewBox="0 0 229.1 172.2" style="enable-background:new 0 0 229.1 172.2;" xml:space="preserve">
<style type="text/css">
	.st0{fill:#C2AB83;}
	.st1{fill:none;stroke:#660D3B;stroke-width:2;stroke-linecap:round;stroke-miterlimit:10;}
	.st2{fill:#660D3B;}
	.st3{fill:none;stroke:#660D3B;stroke-width:3;stroke-linecap:round;stroke-linejoin:round;stroke-miterlimit:10;}
	.st4{fill:none;stroke:#660D3B;stroke-width:3;stroke-linejoin:round;stroke-miterlimit:10;}
	.st5{fill:none;stroke:#660D3B;stroke-width:3;stroke-linecap:round;stroke-miterlimit:10;}
</style>
<g id="beige">
	<path class="st0" d="M154.6,128.9c0,0-0.2-9.4-2.2-16.3c-8.2-28.2-58.9-34-71,0c-3.3,9.3-1.9,14.6-1.9,19.1
		C103.3,92.7,136.4,103.6,154.6,128.9z"/>
	<path class="st0" d="M40.1,96l-0.4,29.8c6.1,7.2,33.4,3.2,34.9,1.1c1.5-2.1,3.2-23.1,2.7-27.6C70.7,98.5,42.3,103.6,40.1,96z"/>
	<path class="st0" d="M197.7,109.8c0.9-3.5,1.1,12.6,0.1,14.8s-28.9,6.7-36.3,1.9c-1.5-6-1.1-8.3-1.5-13.9
		C166.5,116.1,196.1,116.4,197.7,109.8z"/>
	<path class="st0" d="M182,78.6c-0.4-6.2,47.1-5,47.1-0.3C229.1,85.2,182.5,86.7,182,78.6z"/>
	<path class="st0" d="M15,5.2c2.8-14.5,79.6,4.4,79.6,15.4C94.6,33.4,12.4,18.8,15,5.2z"/>
	<path class="st0" d="M133.9,74.4c-2-6.5-5.1-17-6.4-21.9s23.5-14.6,35.2-11.6c3.8,8.3,7.4,21.4,7.1,23.7
		C169.5,66.8,133.9,74.4,133.9,74.4z"/>
	<path class="st0" d="M96,86.1c3.6-11.7-38.4-22.4-40.7-13c3.6-18.7,11.6-35.6,14.1-36.7c2.4-1.1,31.9,1.5,37.8,12.4
		C103.7,59.9,96,86.1,96,86.1z"/>
</g>
<g id="red">
	<path class="st1" d="M81.5,112.6c9.9-31.8,60.5-32.7,71,0"/>
	<path class="st2" d="M160,112.6c0.9,6,35.5,3.7,37.7-2.8C200,103.3,159.2,107.3,160,112.6z"/>
	<path class="st2" d="M133.5,73.5c2.1,8.7,36.2,5.5,36.3-8.9C169.8,55.9,132.2,68.2,133.5,73.5z"/>
	<line class="st3" x1="178.9" y1="128.9" x2="178.9" y2="158.5"/>
	<line class="st3" x1="179.3" y1="145.6" x2="193.5" y2="161.6"/>
	<line class="st3" x1="178.9" y1="147" x2="166.5" y2="161.6"/>
	<line class="st3" x1="205.9" y1="139.6" x2="182" y2="167.8"/>
	<line class="st3" x1="205.9" y1="139.6" x2="227.3" y2="166.7"/>
	<line class="st3" x1="206.3" y1="160.5" x2="205.9" y2="68.1"/>
	<line class="st3" x1="57" y1="128.9" x2="57" y2="157.4"/>
	<line class="st3" x1="57" y1="145.6" x2="69.4" y2="160.5"/>
	<line class="st3" x1="57" y1="145.6" x2="42.3" y2="161.6"/>
	<path class="st2" d="M40.1,96c-2.3,7.6,36.3,8.7,37.7,2.8C79.5,91.7,41.8,90.1,40.1,96z"/>
	<path class="st2" d="M55.3,74.3c1.2,7.8,39.1,19.2,41.8,10.1C99.8,75.2,53.5,62.4,55.3,74.3z"/>
	<polyline class="st3" points="53.9,14.3 53.9,21.4 21.5,74.3 	"/>
	<line class="st4" x1="28.5" y1="58" x2="30.2" y2="158.5"/>
	<line class="st5" x1="29.4" y1="131.8" x2="55.3" y2="166.7"/>
	<line class="st3" x1="30.2" y1="135.4" x2="1.5" y2="167.8"/>
	<path class="st2" d="M109.7,97.5c-0.4,2.4,12.4,2.9,13.1,0C123.6,94.6,110.5,92.9,109.7,97.5z"/>
	<polyline class="st5" points="116.3,97 117.1,74.3 106.3,71.7 106.3,59.9 97.2,58 	"/>
	<polyline class="st5" points="117.1,74.3 127.4,71.7 127.4,61.6 137.9,58 	"/>
	<path class="st2" d="M116.1,103.6c53.5-1.4,49.3,70.1,0,68.4C75,176.2,60.3,105,116.1,103.6z"/>
</g>
</svg>
