<?xml version="1.0" encoding="utf-8"?>
<!-- Generator: Adobe Illustrator 23.0.1, SVG Export Plug-In . SVG Version: 6.00 Build 0)  -->
<svg version="1.1" id="guitar" xmlns="http://www.w3.org/2000/svg" xmlns:xlink="http://www.w3.org/1999/xlink" x="0px" y="0px"
	 viewBox="0 0 229.1 172.2" style="enable-background:new 0 0 229.1 172.2;" xml:space="preserve">
<style type="text/css">
	.st0{fill:#660D3B;}
	.st1{fill:#C2AB83;}
	.st2{fill:none;stroke:#C2AB83;stroke-miterlimit:10;}
</style>
<path id="red_9_" class="st0" d="M133.7-28.6h5.6v5.4H133v3.4h6.4v5.6h-5.6c0,0-1.9,104.3,1.9,104.7c27,2.3,20.2,21.2,18.8,27.5
	c-4.5,20.3,4.5,24.3,8.3,32.1c21,44.1-7.9,60.6-38.7,59.5c-77.3-2.6-40.2-61.6-38.7-63.4c1.5-1.9,11.6-12.4,7.1-25.2
	c-15-33.4,24-30.4,24-30.4l-1.1-102.9h-8.6v-5.6h7.5v-4.5h-6.8v-5.3h5.6v-4.9h-6v-4.9h6.8v-6.8h19.9v7.8h5.1v4.2h-5.6L133.7-28.6z"
	/>
<g id="beige">
	<path class="st1" d="M112.5,129.6c0,17.5,23.2,19.1,23.2,0C135.7,109.7,112.5,110.5,112.5,129.6z"/>
	<line class="st2" x1="120.8" y1="126.9" x2="119.8" y2="-35.9"/>
	<line class="st2" x1="125.1" y1="126.9" x2="124.1" y2="-35.9"/>
	<line class="st2" x1="129.2" y1="126.9" x2="128.2" y2="-35.9"/>
	<path class="st1" d="M106.7,168h40.5v5.3l-9.3,3.4c0,0-20.8,0-22.2,0s-9-3.1-9-3.1V168z"/>
</g>
</svg>
