<?xml version="1.0" encoding="utf-8"?>
<!-- Generator: Adobe Illustrator 23.0.1, SVG Export Plug-In . SVG Version: 6.00 Build 0)  -->
<svg version="1.1" id="Layer_1" xmlns="http://www.w3.org/2000/svg" xmlns:xlink="http://www.w3.org/1999/xlink" x="0px" y="0px"
	 viewBox="0 0 240.7 262.5" style="enable-background:new 0 0 240.7 262.5;" xml:space="preserve">
<style type="text/css">
	.st0{fill:#660D3B;}
	.st1{fill:#C2AB83;}
	.st2{fill:none;stroke:#C2AB83;stroke-miterlimit:10;}
</style>
<g id="red">
	<path id="red_2_" class="st0" d="M26.7,240.9l25.5,17.3c0,0,31.4,19.3,43.2-23.7c5.3-19.1,5.3-18,5.3-19.1s5.9-19.1,27-27.4
		c4.7-1.9,10.5-7.5,9.8-17.6c-0.8-10.1-9.4-2.3-11.3,0c-1.9,2.3-12.4,6-20.6-7.1c-3.6-5.7,91.2-116.4,91.2-116.4s9,1.9,11.3,0
		c2.3-1.9,11.6-17.3,14.3-21.8c2.6-4.5,5.6-6.8,9.4-6c3.8,0.8,9-4.5,9-10.5s-9.4-9.4-13.1-8.3c-3.8,1.1-8.6,5.6-8.6,5.6l-4.9-3
		l-3.8,4.5l3.8,3.8l-3.2,3.2l-4.3-4.3l-3.9,3.9l3,3l-3.9,3.9l-5.3-5.3l-3.8,3.8l4.1,4.1l-3,3l-5.4-5.4l-4.7,4.7l4.7,4.7
		c0,0-4.3,3.6-5.8,7.7S98.4,138.7,98.4,138.7s-22.5-7.9-1.1-30.4c6.8-7.1-14.3-9-23.3,3.8s-13.5,27.4-15.4,29.3
		c-1.9,1.9-5.6,12-18.4,18s-36.8,21-39.4,34.5C-1.9,207.4,1.1,223.6,26.7,240.9z"/>
</g>
<g id="beige">
	<path class="st1" d="M97.4,163.9c0,0-10.1-7.3-10.4-9.3c-0.3-2,7.3-11,5.2-12.7c-2.1-1.7-8-2.3-10,2c-2,4.2-13,18.9-15.8,20
		c-2.8,1.1-38,14.4-23.4,31.3s32.9,18,32.9,48.1c5.1,7.6,11.5,4.5,19.6-18.3c2.6-7.3-2.9-24.2,24.6-38.3c14.4-7.3,15.5-15.4,14.6-16
		c-4.5-3.4-5.9,1.1-11.5,3.9S103.7,168.8,97.4,163.9z"/>
	<g>
		<line class="st2" x1="95.6" y1="162.6" x2="189.5" y2="47.9"/>
		<line class="st2" x1="92.7" y1="159.8" x2="187.6" y2="45.1"/>
		<line class="st2" x1="89.3" y1="157.4" x2="185.2" y2="42.7"/>
	</g>
</g>
</svg>
