<?xml version="1.0" encoding="utf-8"?>
<!-- Generator: Adobe Illustrator 23.0.1, SVG Export Plug-In . SVG Version: 6.00 Build 0)  -->
<svg version="1.1" id="guitar" xmlns="http://www.w3.org/2000/svg" xmlns:xlink="http://www.w3.org/1999/xlink" x="0px" y="0px"
	 viewBox="0 0 94.7 253.8" style="enable-background:new 0 0 94.7 253.8;" xml:space="preserve">
<style type="text/css">
	.st0{fill:#660D3B;}
	.st1{fill:#C2AB83;}
	.st2{fill:none;stroke:#C2AB83;stroke-miterlimit:10;}
</style>
<path id="red_9_" class="st0" d="M58.7,15.6h5.6V21h-6.4v3.4h6.4V30h-5.6c0,0-1.9,104.3,1.9,104.7c27,2.3,20.2,21.2,18.8,27.5
	c-4.5,20.3,4.5,24.3,8.3,32.1c21,44.1-7.9,60.6-38.7,59.5c-77.3-2.6-40.2-61.6-38.7-63.4c1.5-1.9,11.6-12.4,7.1-25.2
	c-15-33.4,24-30.4,24-30.4L40.3,31.9h-8.6v-5.6h7.5v-4.5h-6.8v-5.3H38v-4.9h-6V6.8h6.8V0h19.9v7.8h5.1V12h-5.6L58.7,15.6z"/>
<g id="beige">
	<path class="st1" d="M37.4,173.8c0,17.5,23.2,19.1,23.2,0C60.6,153.9,37.4,154.8,37.4,173.8z"/>
	<line class="st2" x1="45.7" y1="171.1" x2="44.7" y2="8.4"/>
	<line class="st2" x1="50" y1="171.1" x2="49" y2="8.4"/>
	<line class="st2" x1="54.2" y1="171.1" x2="53.2" y2="8.4"/>
	<path class="st1" d="M31.6,212.2h40.5v5.3l-9.3,3.4c0,0-20.8,0-22.2,0c-1.4,0-9-3.1-9-3.1V212.2z"/>
</g>
</svg>
