<?xml version="1.0" encoding="utf-8"?>
<!-- Generator: Adobe Illustrator 23.0.1, SVG Export Plug-In . SVG Version: 6.00 Build 0)  -->
<svg version="1.1" id="guitar_x5F_acustic" xmlns="http://www.w3.org/2000/svg" xmlns:xlink="http://www.w3.org/1999/xlink" x="0px"
	 y="0px" viewBox="0 0 35.4 94.9" style="enable-background:new 0 0 35.4 94.9;" xml:space="preserve">
<style type="text/css">
	.st0{fill:#660D3B;}
	.st1{fill:#C2AB83;}
</style>
<path id="red_9_" class="st0" d="M21.9,5.8H24v2h-2.4v1.3H24v2.1h-2.1c0,0-0.7,39,0.7,39.1c10.1,0.9,7.5,7.9,7,10.3
	c-1.7,7.6,1.7,9.1,3.1,12c7.9,16.5-2.9,22.7-14.5,22.3c-28.9-1-15-23-14.5-23.7c0.6-0.7,4.4-4.6,2.7-9.4c-5.6-12.5,9-11.4,9-11.4
	l-0.4-38.5h-3.2V9.8h2.8V8.1h-2.5v-2h2.1V4.4H12V2.5h2.5V0h7.4v2.9h1.9v1.6h-2.1L21.9,5.8z"/>
<g id="beige">
	<path class="st1" d="M14,65c0,6.5,8.7,7.2,8.7,0C22.7,57.5,14,57.9,14,65z"/>
	<path class="st1" d="M11.8,79.3H27v2l-3.5,1.3c0,0-7.8,0-8.3,0c-0.5,0-3.4-1.2-3.4-1.2V79.3z"/>
</g>
</svg>
