<?xml version="1.0" encoding="utf-8"?>
<!-- Generator: Adobe Illustrator 23.0.1, SVG Export Plug-In . SVG Version: 6.00 Build 0)  -->
<svg version="1.1" id="headphones" xmlns="http://www.w3.org/2000/svg" xmlns:xlink="http://www.w3.org/1999/xlink" x="0px" y="0px"
	 viewBox="0 0 225.3 207.4" style="enable-background:new 0 0 225.3 207.4;" xml:space="preserve">
<style type="text/css">
	.st0{fill:#C2AB83;}
	.st1{fill:#660D3B;}
</style>
<g id="beige_5_">
	<path class="st0" d="M189.9,200.3v-66.5c0-3.8-3.1-6.8-6.8-6.8h-22.8c-3.8,0-6.8,3.1-6.8,6.8v66.8c0,3.8,3.1,6.9,6.9,6.8l22.8-0.3
		C186.9,207,189.9,204,189.9,200.3z"/>
	<path class="st0" d="M69.3,200.7v-67.4c0-3.5-2.8-6.4-6.4-6.4H39.3c-3.5,0-6.4,2.8-6.4,6.4V201c0,3.5,2.9,6.4,6.5,6.4l23.7-0.3
		C66.6,207,69.3,204.2,69.3,200.7z"/>
</g>
<path id="red" class="st1" d="M192.5,201.2c0,0-0.8-68.7,0-69.8s9.8,1.9,13.9,6c18.9-170.8-215.9-147.9-190-2.6
	c9.8-4.9,12.8-4.9,13.9-4.9c1.1,0,0.8,70.6,0,71.3s-28.5,0-23.7-50.7c-57.1-205.7,273.7-194.8,210.6-2.6
	C221,152.1,225.3,201.4,192.5,201.2z"/>
</svg>
