<?xml version="1.0" encoding="utf-8"?>
<!-- Generator: Adobe Illustrator 23.0.1, SVG Export Plug-In . SVG Version: 6.00 Build 0)  -->
<svg version="1.1" id="microphone" xmlns="http://www.w3.org/2000/svg" xmlns:xlink="http://www.w3.org/1999/xlink" x="0px" y="0px"
	 viewBox="0 0 50.2 82.6" style="enable-background:new 0 0 50.2 82.6;" xml:space="preserve">
<style type="text/css">
	.st0{fill:#C2AB83;}
	.st1{fill:#660D3B;}
</style>
<g id="beige">
	<path class="st0" d="M22.7,13.6c0.9,3.7,5.6,11.1,8,12.6c3.2,2,12,0,13.4-1.3c-6-3.7-16.5-18.6-16.5-21.4
		C23.4,6.6,22,10.9,22.7,13.6z"/>
	<path class="st0" d="M28.6,2.9c0,0,6.6,15.1,16.8,20.9C55.5,17.7,49.6-8.7,28.6,2.9z"/>
</g>
<path id="red" class="st1" d="M21.3,13.6c0.3,0.4,0.1-0.5,0.3,0.4c1.8,7.3,8.3,14.2,10.5,14.2c0,0-8.4,8.1-9.7,8.7l-0.1,32.2
	c16.1,0.6,28.5,13.5,0.1,13.5c-27.8,0-21.8-13.6-5.8-13.5c0,0-0.1-28.4,0-29.2l-4.9,3.5c-2.2,1.6-5.2,1.2-6.9-0.8l-3-3.5
	c-3-3.5-2.4-8.8,1.2-11.6L21.3,13.6z"/>
</svg>
