<?xml version="1.0" encoding="utf-8"?>
<!-- Generator: Adobe Illustrator 23.0.1, SVG Export Plug-In . SVG Version: 6.00 Build 0)  -->
<svg version="1.1" id="microphone" xmlns="http://www.w3.org/2000/svg" xmlns:xlink="http://www.w3.org/1999/xlink" x="0px" y="0px"
	 viewBox="0 0 134.3 221" style="enable-background:new 0 0 134.3 221;" xml:space="preserve">
<style type="text/css">
	.st0{fill:#C2AB83;}
	.st1{fill:#660D3B;}
</style>
<g id="beige">
	<path class="st0" d="M60.7,36.3c2.4,9.8,14.9,29.6,21.5,33.7c8.6,5.3,32.1-0.1,35.8-3.5C102,56.6,74,16.8,74,9.3
		C62.7,17.5,58.9,29.1,60.7,36.3z"/>
	<path class="st0" d="M76.6,7.8c0,0,17.8,40.4,44.8,55.8C148.4,47.4,132.6-23.2,76.6,7.8z"/>
</g>
<path id="red" class="st1" d="M56.9,36.3c0.8,1.1,0.2-1.2,0.8,1.1c4.7,19.5,22.1,38.1,28.2,37.9c0,0-22.5,21.8-25.9,23.3l-0.4,86.2
	c43.2,1.5,76.2,36.2,0.4,36.2c-74.3,0-58.2-36.4-15.4-36c0,0-0.4-75.8,0-78.1l-13,9.5c-5.8,4.2-13.8,3.2-18.4-2.2l-8-9.5
	c-8-9.4-6.4-23.6,3.3-31.1L56.9,36.3z"/>
</svg>
