<?xml version="1.0" encoding="utf-8"?>
<!-- Generator: Adobe Illustrator 23.0.1, SVG Export Plug-In . SVG Version: 6.00 Build 0)  -->
<svg version="1.1" id="saxophone" xmlns="http://www.w3.org/2000/svg" xmlns:xlink="http://www.w3.org/1999/xlink" x="0px" y="0px"
	 viewBox="0 0 54.5 97" style="enable-background:new 0 0 54.5 97;" xml:space="preserve">
<style type="text/css">
	.st0{fill:#660D3B;}
	.st1{fill:#C2AB83;}
</style>
<path id="red_3_" class="st0" d="M27,87.6c1.2,4.1,11.2,17.5,16.9,2.3c2.1-5.4,0.8-35,9.6-33.3c2.9,1.3-0.6-5.5-8.7-11.1
	c-1.8-1.3-1.1,0.3-0.7,1.2c0.3,0.8-3.2,6.3-4.2,8.4c-1.3,2.8-2.2,6.5-2.3,25.3c0,6-3.9,11.5-2.9-2c0.1-2-1.6-62.4-1.5-64.6
	S36.8-3.8,21.1,0.9c-4.4,2.3-3.9,3.5-12.7,2.2C5.3,2.6,1,3.3,0.2,3.6s1.7,2.7,10.1,2.6c8.4-0.1,11.7-2.4,12.9-2.4
	c1.3,0,5.1-0.9,6.1,4.4c0,0-1.6,2.9-2,3.8c-0.5,0.8-0.6,15.3-0.6,17.4S22.9,73.7,27,87.6z"/>
<path id="beige" class="st1" d="M34.1,83.4c0,0,2.2-1.8,2.5-2.6s0.4-7.5,0.4-7.5V56.9l0.4-14.4c0,0-2.2-2.8-2.7-3.3s0.4-6,0.4-6.8
	c0-0.8-1.5-5.3-1.8-5.4C33.1,26.9,34.1,83.4,34.1,83.4z"/>
</svg>
