<?xml version="1.0" encoding="utf-8"?>
<!-- Generator: Adobe Illustrator 23.0.1, SVG Export Plug-In . SVG Version: 6.00 Build 0)  -->
<svg version="1.1" id="saxophone" xmlns="http://www.w3.org/2000/svg" xmlns:xlink="http://www.w3.org/1999/xlink" x="0px" y="0px"
	 viewBox="0 0 145.9 259.4" style="enable-background:new 0 0 145.9 259.4;" xml:space="preserve">
<style type="text/css">
	.st0{fill:#660D3B;}
	.st1{fill:#C2AB83;}
</style>
<path id="red_3_" class="st0" d="M72.2,234.3c3.2,11,29.8,46.7,45.3,6.2c5.5-14.5,2.3-93.5,25.6-89c7.9,3.4-1.7-14.6-23.4-29.6
	c-4.9-3.4-2.8,0.8-2,3.1c0.8,2.3-8.5,16.8-11.1,22.5c-3.5,7.6-5.8,17.5-6,67.6c-0.1,15.9-10.3,30.7-7.9-5.3
	c0.4-5.4-4.2-167-3.9-172.9c0.3-5.9,9.6-47-32.4-34.6C44.6,8.5,46,11.6,22.4,8.2C14.1,7,2.7,8.8,0.4,9.6c-2.3,0.8,4.5,7.3,27,7
	c22.5-0.3,31.3-6.5,34.6-6.5c3.4,0,13.5-2.5,16.3,11.8c0,0-4.2,7.9-5.5,10.1S71.4,73,71.4,78.6S61.2,197,72.2,234.3z"/>
<path id="beige" class="st1" d="M91.3,223.1c0,0,6-4.8,6.8-7c0.8-2.3,1.1-20,1.1-20v-43.9l1.1-38.6c0,0-5.9-7.6-7.3-8.7
	s1.1-16,1.1-18.3c0-2.3-4.1-14.1-4.9-14.4C88.5,71.8,91.3,223.1,91.3,223.1z"/>
</svg>
