<?xml version="1.0" encoding="utf-8"?>
<!-- Generator: Adobe Illustrator 23.0.1, SVG Export Plug-In . SVG Version: 6.00 Build 0)  -->
<svg version="1.1" id="trumpet" xmlns="http://www.w3.org/2000/svg" xmlns:xlink="http://www.w3.org/1999/xlink" x="0px" y="0px"
	 viewBox="0 0 235.4 70" style="enable-background:new 0 0 235.4 70;" xml:space="preserve">
<style type="text/css">
	.st0{fill:#660D3B;}
	.st1{fill:#C2AB83;}
</style>
<g id="red">
	<path class="st0" d="M200.5,29.5c0,0,18.4,3.5,25.2,16.1c12.2,22.9,14.6-75.1-3-36.5c-3,6.5-23.7,8.7-25.2,8.7s-155.4,0-155.4,0
		s-4.9,3-4.9,4.9c0,1.9-27,1.9-27,1.9l-8.3-5.2c0,0-3,6.4-1.5,9.8s6.8-0.8,6.8-0.8L29,28L200.5,29.5z"/>
	<path class="st0" d="M29,28c0,0-9,25.9,10.1,28.5c19.1,2.6,129.5,0,129.5,0s22.5,5.3,14.6-27l-6-0.4c0,0,4.1,19-4.1,20
		c-8.3,1-130.3,0.9-130.3,0.9s-18-0.6-6.8-21.7L29,28z"/>
</g>
<polygon id="beige" class="st1" points="107.8,70 115.3,70 115.3,17.3 111.5,17.3 111.5,9.1 106.8,9.1 106.8,17.6 101.8,17.9 
	101.8,9.1 96.3,9.1 96.3,17.8 91.3,17.8 91.3,9.1 86,9.1 86,17.8 80.8,17.8 80.8,70 "/>
</svg>
