<?xml version="1.0" encoding="utf-8"?>
<!-- Generator: Adobe Illustrator 23.0.1, SVG Export Plug-In . SVG Version: 6.00 Build 0)  -->
<svg version="1.1" id="trumpet" xmlns="http://www.w3.org/2000/svg" xmlns:xlink="http://www.w3.org/1999/xlink" x="0px" y="0px"
	 viewBox="0 0 88 26.2" style="enable-background:new 0 0 88 26.2;" xml:space="preserve">
<style type="text/css">
	.st0{fill:#660D3B;}
	.st1{fill:#C2AB83;}
</style>
<g id="red_x5C_">
	<path class="st0" d="M75,11c0,0,6.9,1.3,9.4,6c4.6,8.6,5.5-28.1-1.1-13.6c-1.1,2.4-8.8,3.3-9.4,3.3s-58.1,0-58.1,0
		s-1.8,1.1-1.8,1.8S3.8,9.2,3.8,9.2l-3.1-2c0,0-1.1,2.4-0.6,3.6s2.5-0.3,2.5-0.3l8.1-0.1L75,11z"/>
	<path class="st0" d="M10.8,10.5c0,0-3.4,9.7,3.8,10.7s48.4,0,48.4,0s8.4,2,5.5-10.1l-2.2-0.1c0,0,1.5,7.1-1.5,7.5S16,18.7,16,18.7
		s-6.7-0.2-2.5-8.1L10.8,10.5z"/>
</g>
<polygon id="beige" class="st1" points="40.3,26.2 43.1,26.2 43.1,6.5 41.7,6.5 41.7,3.4 39.9,3.4 39.9,6.6 38.1,6.7 38.1,3.4 
	36,3.4 36,6.7 34.1,6.7 34.1,3.4 32.2,3.4 32.2,6.7 30.2,6.7 30.2,26.2 "/>
</svg>
